Coordinates
version=1
nRows=49
nColumns=12
inDegrees=yes

Units are S.I. units (second, meters, Newtons, ...)
Angles are in degrees

endheader
time	SC_y	SC_z	SC_x	AC_y	AC_z	AC_x	GH_y	GH_z	GH_yy	EL_x	PS_y
       0.0              -47.61          28.92          15.28          65.22         -1.121         -16.55          -90.8          47.28          130.1          81.63          157.8
  0.003264              -47.61          28.92          15.29          65.22         -1.121         -16.55         -90.78          47.29          130.1          81.63          157.8
  0.006527              -47.61          28.92          15.29          65.22         -1.121         -16.54         -90.77          47.29          130.1          81.63          157.8
  0.009791               -47.6          28.92           15.3          65.21         -1.121         -16.54         -90.76           47.3          130.0          81.63          157.8
   0.01305               -47.6          28.92           15.3          65.21          -1.12         -16.53         -90.75          47.31          130.0          81.63          157.7
   0.01632               -47.6          28.92          15.31          65.21          -1.12         -16.53         -90.74          47.31          130.0          81.63          157.7
   0.01958              -47.59          28.92          15.31          65.21          -1.12         -16.52         -90.72          47.32          130.0          81.62          157.7
   0.02285              -47.59          28.92          15.32          65.21          -1.12         -16.52         -90.71          47.33          130.0          81.62          157.7
   0.02611              -47.58          28.92          15.33           65.2          -1.12         -16.51         -90.69          47.33          129.9          81.62          157.6
   0.02937              -47.58          28.92          15.34           65.2          -1.12          -16.5         -90.68          47.34          129.9          81.62          157.6
   0.03264              -47.57          28.92          15.34           65.2          -1.12         -16.49         -90.66          47.35          129.9          81.62          157.5
    0.0359              -47.57          28.92          15.35          65.19          -1.12         -16.49         -90.64          47.36          129.9          81.62          157.5
   0.03916              -47.56          28.92          15.36          65.19          -1.12         -16.48         -90.62          47.37          129.8          81.62          157.5
   0.04243              -47.55          28.93          15.37          65.19         -1.119         -16.47         -90.59          47.38          129.8          81.62          157.4
   0.04569              -47.55          28.93          15.39          65.18         -1.119         -16.46         -90.57           47.4          129.8          81.62          157.4
   0.04896              -47.54          28.93           15.4          65.18         -1.119         -16.44         -90.54          47.41          129.7          81.62          157.3
   0.05222              -47.53          28.93          15.41          65.17         -1.119         -16.43         -90.51          47.43          129.7          81.61          157.2
   0.05548              -47.52          28.93          15.43          65.17         -1.119         -16.42         -90.48          47.44          129.6          81.61          157.2
   0.05875              -47.51          28.93          15.44          65.16         -1.118          -16.4         -90.44          47.46          129.6          81.61          157.1
   0.06201               -47.5          28.93          15.46          65.16         -1.118         -16.39         -90.41          47.48          129.5          81.61          157.0
   0.06527              -47.49          28.94          15.48          65.15         -1.118         -16.37         -90.36           47.5          129.4          81.61          156.9
   0.06854              -47.47          28.94           15.5          65.14         -1.118         -16.35         -90.32          47.52          129.4           81.6          156.8
    0.0718              -47.46          28.94          15.52          65.14         -1.117         -16.33         -90.27          47.55          129.3           81.6          156.7
   0.07507              -47.44          28.94          15.55          65.13         -1.117          -16.3         -90.21          47.58          129.2           81.6          156.6
   0.07833              -47.42          28.95          15.58          65.12         -1.116         -16.28         -90.15          47.61          129.1          81.59          156.5
   0.08159               -47.4          28.95          15.61          65.11         -1.116         -16.25         -90.08          47.64          129.0          81.59          156.3
   0.08486              -47.38          28.95          15.65          65.09         -1.115         -16.21          -90.0          47.68          128.9          81.59          156.2
   0.08812              -47.35          28.96          15.69          65.08         -1.115         -16.17         -89.91          47.73          128.8          81.58          156.0
   0.09138              -47.32          28.96          15.73          65.06         -1.114         -16.13         -89.81          47.78          128.6          81.58          155.8
   0.09465              -47.29          28.97          15.78          65.05         -1.113         -16.08         -89.69          47.83          128.4          81.57          155.6
   0.09791              -47.25          28.97          15.84          65.03         -1.112         -16.03         -89.56           47.9          128.3          81.56          155.3
    0.1012               -47.2          28.98          15.91           65.0         -1.111         -15.96         -89.42          47.97          128.0          81.56          155.0
    0.1044              -47.15          28.99          15.99          64.97          -1.11         -15.89         -89.24          48.06          127.8          81.55          154.6
    0.1077              -47.09           29.0          16.08          64.94         -1.109          -15.8         -89.04          48.16          127.5          81.54          154.2
     0.111              -47.02          29.01          16.19          64.91         -1.107          -15.7         -88.81          48.28          127.1          81.53          153.7
    0.1142              -46.94          29.02          16.31          64.86         -1.105         -15.58         -88.53          48.42          126.7          81.51          153.2
    0.1175              -46.84          29.03          16.46          64.81         -1.103         -15.44         -88.21          48.58          126.2          81.49          152.5
    0.1208              -46.72          29.05          16.64          64.75         -1.101         -15.28         -87.81          48.78          125.6          81.47          151.7
     0.124              -46.58          29.07          16.86          64.67         -1.097         -15.07         -87.34          49.01          124.9          81.45          150.7
    0.1273              -46.41           29.1          17.12          64.58         -1.093         -14.82         -86.76          49.31          124.1          81.42          149.5
    0.1305              -46.19          29.13          17.45          64.47         -1.089         -14.52         -86.04          49.66          123.0          81.38          148.0
    0.1338              -45.93          29.17          17.85          64.33         -1.082         -14.13         -85.15          50.11          121.7          81.34          146.2
    0.1371              -45.59          29.23          18.37          64.15         -1.075         -13.65         -84.02          50.68          120.0          81.28          143.9
    0.1403              -45.16          29.29          19.02          63.93         -1.065         -13.04         -82.59          51.39          117.8          81.21          140.9
    0.1436              -44.61          29.37          19.85          63.64         -1.053         -12.25         -80.76          52.31          115.1          81.11          137.1
    0.1469              -43.91          29.48          20.92          63.27         -1.037         -11.24         -78.41          53.49          111.6          80.99          132.3
    0.1501              -43.02          29.62          22.29          62.79         -1.016         -9.958         -75.41          54.99          107.1          80.84          126.1
    0.1534              -41.89          29.79          24.01           62.2        -0.9908          -8.34         -71.64          56.88          101.5          80.64          118.3
    0.1567              -40.51           30.0           26.1          61.47        -0.9596         -6.369         -67.04          59.18          94.61           80.4          108.8
